<?xml version="1.0" encoding="UTF-8" standalone="no" ?>
<!DOCTYPE svg PUBLIC "-//W3C//DTD SVG 1.1//EN" "http://www.w3.org/Graphics/SVG/1.1/DTD/svg11.dtd">
<svg xmlns="http://www.w3.org/2000/svg" xmlns:xlink="http://www.w3.org/1999/xlink" version="1.1" width="1080" height="1080" viewBox="0 0 1080 1080" xml:space="preserve">
<desc>Created with Fabric.js 5.2.4</desc>
<defs>
</defs>
<g transform="matrix(1 0 0 1 540 540)" id="81d3ced3-5b13-4408-b76d-88b2332a5d53"  >
<rect style="stroke: none; stroke-width: 1; stroke-dasharray: none; stroke-linecap: butt; stroke-dashoffset: 0; stroke-linejoin: miter; stroke-miterlimit: 4; fill: rgb(255,255,255); fill-rule: nonzero; opacity: 1; visibility: hidden;" vector-effect="non-scaling-stroke"  x="-540" y="-540" rx="0" ry="0" width="1080" height="1080" />
</g>
<g transform="matrix(1 0 0 1 540 540)" id="8de6b238-cc68-4acf-8937-149f14b0eecd"  >
</g>
<g transform="matrix(1.33 0 0 1.33 540 540)"  >
<g style="" vector-effect="non-scaling-stroke"   >
		<g transform="matrix(50 0 0 50 0 0)"  >
<path style="stroke: none; stroke-width: 1; stroke-dasharray: none; stroke-linecap: butt; stroke-dashoffset: 0; stroke-linejoin: miter; stroke-miterlimit: 4; fill: rgb(252,164,115); fill-rule: nonzero; opacity: 1;" vector-effect="non-scaling-stroke"  transform=" translate(-7.97, -8.03)" d="M 7 0.0618896 L 7 9 L 15.9381 9 C 15.446 12.9463 12.0796 16 8 16 C 3.58172 16 0 12.4183 0 8 C 0 3.92038 3.05369 0.553988 7 0.0618896 Z" stroke-linecap="round" />
</g>
		<g transform="matrix(50 0 0 50 225 -225)"  >
<path style="stroke: none; stroke-width: 1; stroke-dasharray: none; stroke-linecap: butt; stroke-dashoffset: 0; stroke-linejoin: miter; stroke-miterlimit: 4; fill: rgb(252,164,115); fill-rule: nonzero; opacity: 1;" vector-effect="non-scaling-stroke"  transform=" translate(-12.47, -3.53)" d="M 9 0.0618897 L 9 7 L 15.9381 7 C 15.4869 3.38128 12.6187 0.513137 9 0.0618897 Z" stroke-linecap="round" />
</g>
</g>
</g>
<g transform="matrix(NaN NaN NaN NaN 0 0)"  >
<g style=""   >
</g>
</g>
</svg>